<?xml version="1.0" encoding="utf-8"?>
<!-- Generator: Adobe Illustrator 28.1.0, SVG Export Plug-In . SVG Version: 6.00 Build 0)  -->
<svg version="1.1" id="Layer_1" xmlns="http://www.w3.org/2000/svg" xmlns:xlink="http://www.w3.org/1999/xlink" x="0px" y="0px"
	 viewBox="0 0 3573 1080" style="enable-background:new 0 0 3573 1080;" xml:space="preserve">
<style type="text/css">
	.st0{fill:#0B243A;}
	.st1{fill:#8BC1AF;}
	.st2{fill:#44A088;}
	.st3{opacity:0.3;}
	.st4{fill:#FFFFFF;}
	.st5{opacity:0.2;}
	.st6{fill:#5F877B;}
	.st7{fill:url(#SVGID_1_);}
	.st8{fill:url(#SVGID_00000013900040002748224010000003881414223605246884_);}
	.st9{fill:#EAE4C0;}
	.st10{fill:#F0EEE2;}
	.st11{fill:url(#SVGID_00000054249671374015043070000005072208174623489160_);}
</style>
<g>
	<path class="st0" d="M1529,853.3c-47.5,0-92.3-8.2-134.4-24.5c-42.1-16.3-78.2-38.6-108.3-66.6c-30.1-28.1-53.8-61.9-71.3-101.6
		c-17.4-39.6-26.1-82-26.1-127c0-60.2,14.8-114.6,44.4-163.3c29.6-48.7,70.4-86.9,122.4-114.5c52-27.6,109.7-41.4,173.3-41.4
		c47.8,0,92.9,8.1,135.1,24.3c42.3,16.2,78.4,38.4,108.5,66.6c30.1,28.2,53.8,62.1,71.3,101.6c17.4,39.5,26.1,81.8,26.1,126.8
		c0,44.7-8.7,86.9-26.1,126.6c-17.4,39.6-41.2,73.6-71.3,101.8c-30.1,28.2-66.2,50.5-108.5,66.9
		C1621.9,845.2,1576.8,853.3,1529,853.3z M1529,703.4c48.4,0,89.1-16,122.2-48.1c33-32.1,49.5-72.7,49.5-121.7
		c0-49-16.5-89.5-49.5-121.5c-33-31.9-73.7-47.9-122.2-47.9c-48.1,0-88.6,16-121.5,47.9c-32.9,31.9-49.3,72.4-49.3,121.5
		c0,49.1,16.4,89.6,49.3,121.7C1440.4,687.4,1480.9,703.4,1529,703.4z"/>
	<path class="st0" d="M2489.7,371.6c9.9,5.3,16.2,11.4,19,18.5c2.8,7.1,2.8,16.8,0,29.2l-14.3,62.5c-2.5,10.5-6,17.7-10.6,21.5
		c-4.6,3.9-9.3,5.5-13.9,4.9c-2.8-0.3-7.9-1.8-15.3-4.4c-7.4-2.6-12.8-3.9-16.2-3.9c-6.2,0-9.3,4.3-9.3,13v272.1
		c0,39.2-6.8,74.2-20.4,105c-13.6,30.8-32.5,56-56.9,75.4c-24.4,19.4-52.6,34.2-84.7,44.2c-32.1,10-67.3,15-105.5,15
		c-47.2,0-89.4-7.5-126.6-22.4c-37.2-15-67.9-34.3-92.3-58.1c-19.1-18.2-19.7-37.5-1.9-57.8l30.5-37c16.7-18.8,35.5-19.4,56.5-1.9
		c15.1,14.2,34.7,26.6,58.8,37.2s49.7,16,76.8,16c32.1,0,59.4-7.7,81.9-23.1c22.5-15.4,33.8-38.1,33.8-68V764
		c-37.6,25.3-79.9,37.9-126.8,37.9c-63.6,0-116.8-21.2-159.6-63.6c-42.9-42.4-64.3-95.7-64.3-159.9c0-63.9,21.5-117,64.6-159.4
		c43-42.4,96.5-63.6,160.3-63.6c58.3,0,109,19.6,152.2,58.8c10.2-20,25.3-34.9,45.3-44.4c20-9.6,42.3-14.3,66.6-14.3
		C2444.6,355.4,2468.7,360.8,2489.7,371.6z M2190.3,681.7c29.3,0,53.4-9.6,72.2-28.9c18.8-19.3,28.2-43.7,28.2-73.3
		c0-30.2-9.4-55.1-28.2-74.5c-18.8-19.4-42.9-29.2-72.2-29.2c-29,0-52.8,9.6-71.5,28.9c-18.7,19.3-28,43.9-28,73.8
		c0,29.9,9.3,54.6,28,74C2137.4,671.9,2161.3,681.7,2190.3,681.7z"/>
	<path class="st0" d="M2942.7,366.1c10.2,3.4,17.5,7.9,22,13.7c4.5,5.7,5,14.7,1.6,27.1l-18,71.3c-3.4,12.7-8.7,20.9-16,24.8
		c-7.3,3.9-15.5,4.1-24.8,0.7c-20.1-6.5-36.3-9.7-48.6-9.7c-27.5,0-48.7,8.3-63.6,25c-15,16.7-22.4,39.3-22.4,68v211.5
		c0,13.9-3.8,24.6-11.3,32.2c-7.6,7.6-18.3,11.3-32.2,11.3h-77.7c-13.6,0-24.2-3.9-31.9-11.6c-7.7-7.7-11.6-18.4-11.6-31.9V512.8
		c0-8.6-3.2-13-9.7-13c-3.1,0-8.2,1.3-15.3,3.9c-7.1,2.6-12.3,4.1-15.7,4.4c-4.6,0.6-9.3-1-14.1-4.9c-4.8-3.9-8.4-11-10.9-21.5
		l-13-62.5c-3.4-12.3-3.7-22.1-0.9-29.2c2.8-7.1,9.4-13.3,19.9-18.5c20-10.8,43.6-16.2,70.8-16.2c26.5,0,50.3,5.6,71.3,16.9
		c21,11.3,36.4,28.8,46.3,52.5c32.4-46.3,78.2-69.4,137.4-69.4C2897,355.4,2919.8,359,2942.7,366.1z"/>
	<path class="st0" d="M3139.8,640c3.7,30.5,17.1,54.5,40.3,71.7c23.1,17.3,50.9,25.9,83.3,25.9c34.5,0,68.3-11.4,101.3-34.2
		c6.5-4.9,12-8.5,16.7-10.6c4.6-2.2,9.7-2.6,15.3-1.4c5.6,1.2,11.3,4.9,17.1,11.1l32.4,33.3c16.3,15.7,17,31.8,1.9,48.1
		c-20.7,21.9-50,39.1-87.9,51.6c-37.9,12.5-76.5,18.7-115.7,18.7c-76.2,0-139.1-23.4-188.6-70.1c-49.5-46.7-74.3-106.8-74.3-180.2
		c0-47.2,10.8-89.7,32.4-127.5c21.6-37.8,51.8-67.4,90.7-88.8c38.9-21.4,82.8-32.2,131.9-32.2c37,0,70.9,6,101.6,18
		c30.7,12,56.5,28.5,77.5,49.5c21.9,21.9,38.9,47.8,51.1,77.7c12.2,29.9,18.3,61.1,18.3,93.5c0,17.3-3,29.2-9,35.9
		c-6,6.6-17.5,9.9-34.5,9.9H3139.8z M3232.8,468.3c-25.3,0-46,7.3-62.2,21.7c-16.2,14.5-26,34.4-29.4,59.7h184.6
		c-3.7-22.8-12.5-41.2-26.4-55.1C3281.9,477.1,3259.6,468.3,3232.8,468.3z"/>
</g>
<g>
	<g>
		<g>
			<path class="st1" d="M1099.4,25c0,0,25.6,132.5-168.8,247.9l62,220.1C1046,475.9,1244.8,281.5,1099.4,25z"/>
			<path class="st1" d="M104,66.2c0,0-25.6,132.5,168.8,247.9l-62,220.1C157.4,517.2-41.3,322.7,104,66.2z"/>
		</g>
		<g>
			<path class="st2" d="M1060.5,344.3c-47.8-21.1-73.5-56.1-85.5-100.8c-13.4,9.9-28.1,19.7-44.4,29.4l62,220.1
				c25.4-8.1,83.7-56.4,122.2-132.3C1095.5,357.8,1076.4,351.3,1060.5,344.3z"/>
			<path class="st2" d="M202.5,264.2c-11.3,57.9-53.3,106.8-100.8,140.9c-2.6,1.9-5.4,3.9-8.3,6c38.4,70.7,93,115.4,117.4,123.2
				l62-220.1C245.1,297.7,222,280.9,202.5,264.2z"/>
		</g>
		<g class="st3">
			<path class="st4" d="M975.6,344.2c39-39.2,176-215.1,123.9-319.2c0,0,25.6,132.5-168.8,247.9l25.3,90
				C962.6,356.8,969.2,350.6,975.6,344.2z"/>
			<path class="st4" d="M94.8,83.4c3.6,27.7,11.6,55.5,18,81.6c9.2,37.6,25.3,73.3,48.2,104.6c26.7,36.6,61.2,65.3,100.3,85.3
				l11.5-40.8C78.4,198.7,104,66.2,104,66.2C100.7,72,97.7,77.7,94.8,83.4z"/>
		</g>
		<g class="st5">
			<path class="st6" d="M975.7,433l16.9,60c40.8-13,166.1-129.3,158.7-297.6C1110.1,287,1052.7,371.6,975.7,433z"/>
			<path class="st6" d="M52.3,234.3c-8.6,169.5,117.7,286.8,158.6,299.9l10.1-35.8C126.4,455,70.5,342.2,52.3,234.3z"/>
		</g>
	</g>
	
		<linearGradient id="SVGID_1_" gradientUnits="userSpaceOnUse" x1="-26.658" y1="675.9914" x2="828.3455" y2="582.5858" gradientTransform="matrix(1 0 0 1 217.0229 -246.8756)">
		<stop  offset="0.6718" style="stop-color:#46BCEC"/>
		<stop  offset="1" style="stop-color:#006D9E"/>
	</linearGradient>
	<path class="st7" d="M274.5,142.5c0,0,399.6-85.5,609.1-36.3C949.8,223.7,1035.3,497.3,1046,570c0,0-356.9,153.9-859.1,106.9
		C182.6,557.1,189,317.8,274.5,142.5z"/>
	
		<linearGradient id="SVGID_00000173861356969322295880000014319378108782896012_" gradientUnits="userSpaceOnUse" x1="-24.3139" y1="878.7988" x2="830.6191" y2="784.7585" gradientTransform="matrix(1 0 0 1 217.0229 -246.8756)">
		<stop  offset="0.6718" style="stop-color:#3AA0C8"/>
		<stop  offset="1" style="stop-color:#005D86"/>
	</linearGradient>
	<path style="fill:url(#SVGID_00000173861356969322295880000014319378108782896012_);" d="M1009,459.7c-80,51.8-169,83.4-262,102.8
		c-103,21.4-208.4,32.4-313.6,29c-56.2-1.8-112.3-6.9-168.1-13.4c-26.5-3.1-52.8-5.6-78.5-10.9c-1.3,42.1-0.9,79.6,0.1,109.6
		C689.1,723.8,1046,570,1046,570c-3.3-22.6-13.9-64.7-28.9-115.4C1014.3,456.3,1011.5,458.1,1009,459.7z"/>
	<g>
		<path d="M775,284.7c-12.5-85.3-128.5-42.6-108.4,41C689.9,423.1,786.2,361.5,775,284.7z"/>
		<path d="M526,305.9c-24.6-46.4-114.6,3.3-68.4,81.2C502.5,436.5,547,345.4,526,305.9z"/>
	</g>
	<g>
		<path class="st9" d="M786,615.6c0,0,55.6-151,72.7-171c14.2,28.5,27.1,91.2,21.4,171C841.6,619.8,812.5,620.8,786,615.6z"/>
		<path class="st9" d="M305.9,466c1.4,45.6,75.7,161.5,122.5,189.5c0,0-86.9,11.4-122.5,5.7C285.9,617,256,511.5,305.9,466z"/>
		<g>
			<path class="st10" d="M872,485.1c-3.9-17-8.5-30.8-13.4-40.5c-5.3,6.2-14.3,25-24.2,48C844.9,484.6,857.2,480.3,872,485.1z"/>
			<path class="st10" d="M307.9,519c4.9-1.2,9.7-1.5,14.3-1.3c-9.7-20.5-15.9-38.9-16.3-51.8c-19.3,17.7-26.6,44.4-27.2,73
				C285.5,529.4,295.3,522.1,307.9,519z"/>
		</g>
	</g>
	
		<linearGradient id="SVGID_00000173143093264502309460000002162578154202044315_" gradientUnits="userSpaceOnUse" x1="-88.6627" y1="1050.2008" x2="896.2158" y2="1050.2008" gradientTransform="matrix(1 0 0 1 217.0229 -246.8756)">
		<stop  offset="0.6718" style="stop-color:#46BCEC"/>
		<stop  offset="1" style="stop-color:#006D9E"/>
	</linearGradient>
	<path style="fill:url(#SVGID_00000173143093264502309460000002162578154202044315_);" d="M175.9,640.3
		c199.4,18.5,608.3-5.2,882.1-103.3c36.5-13.1,53.1,36.4,55.2,58.9c-2.1,222.2-310.6,460.5-479,474c-2.1,0.2-4.1,0.3-6.2,0.5
		C403.2,1088,197,944.2,137.8,726.5c-2.9-10.8-5.7-21.7-8.3-33C122.9,664.6,146.4,637.6,175.9,640.3z"/>
</g>
</svg>
